<svg width="549" height="275" viewBox="0 0 549 275" fill="none" xmlns="http://www.w3.org/2000/svg">
<rect x="0.5" y="1.01038" width="655.415" height="305.655" rx="31.5" fill="white"/>
<rect x="5" y="5.51038" width="646.415" height="296.655" rx="27" fill="white"/>
<rect x="36.52" y="37.0305" width="293.046" height="85.02" rx="17.0115" fill="#6954B8"/>
<path d="M73.7717 90.0405V68.6695H82.259C83.5616 68.6695 84.7218 68.9341 85.7394 69.4633C86.7774 69.9721 87.5814 70.7049 88.1513 71.6615C88.7415 72.5977 89.0367 73.7273 89.0367 75.0503V75.4472C89.0367 76.7702 88.7314 77.9099 88.1208 78.8665C87.5305 79.8232 86.7266 80.5559 85.7089 81.0647C84.6912 81.5735 83.5413 81.828 82.259 81.828H77.0689V90.0405H73.7717ZM77.0689 78.836H81.9232C83.0833 78.836 84.0094 78.5307 84.7014 77.9201C85.3934 77.3095 85.7394 76.475 85.7394 75.4167V75.1114C85.7394 74.0326 85.3934 73.188 84.7014 72.5774C84.0094 71.9668 83.0833 71.6615 81.9232 71.6615H77.0689V78.836ZM95.7775 90.3153C94.6377 90.3153 93.62 90.0609 92.7245 89.552C91.8289 89.0432 91.1268 88.3207 90.6179 87.3844C90.1091 86.4482 89.8547 85.3287 89.8547 84.0261V74.9892H92.9993V83.8124C92.9993 85.115 93.3249 86.0818 93.9762 86.7128C94.6275 87.3234 95.5333 87.6287 96.6934 87.6287C97.9757 87.6287 99.0035 87.2012 99.7769 86.3464C100.571 85.4712 100.968 84.2195 100.968 82.5912V74.9892H104.112V90.0405H101.029V87.7813H100.54C100.255 88.3919 99.7464 88.972 99.0137 89.5215C98.281 90.0507 97.2022 90.3153 95.7775 90.3153ZM115.21 90.4679C113.745 90.4679 112.615 90.2034 111.821 89.6742C111.048 89.145 110.468 88.5547 110.081 87.9034H109.593V90.0405H106.509V68.6695H109.654V77.0347H110.142C110.386 76.6277 110.712 76.241 111.119 75.8746C111.526 75.4879 112.066 75.1724 112.737 74.9282C113.409 74.6839 114.233 74.5618 115.21 74.5618C116.472 74.5618 117.632 74.8671 118.691 75.4777C119.749 76.0883 120.594 76.9737 121.225 78.1338C121.856 79.294 122.171 80.678 122.171 82.2859V82.7439C122.171 84.3721 121.845 85.7663 121.194 86.9265C120.563 88.0663 119.718 88.9414 118.66 89.552C117.622 90.1626 116.472 90.4679 115.21 90.4679ZM114.294 87.7202C115.658 87.7202 116.777 87.2827 117.653 86.4075C118.548 85.5323 118.996 84.2805 118.996 82.6523V82.3775C118.996 80.7696 118.558 79.528 117.683 78.6528C116.808 77.7776 115.678 77.34 114.294 77.34C112.951 77.34 111.832 77.7776 110.936 78.6528C110.061 79.528 109.623 80.7696 109.623 82.3775V82.6523C109.623 84.2805 110.061 85.5323 110.936 86.4075C111.832 87.2827 112.951 87.7202 114.294 87.7202ZM123.816 90.0405V68.6695H126.961V90.0405H123.816ZM129.376 90.0405V74.9892H132.521V90.0405H129.376ZM130.964 72.9437C130.353 72.9437 129.834 72.7504 129.406 72.3637C128.999 71.9566 128.796 71.4376 128.796 70.8066C128.796 70.1757 128.999 69.6668 129.406 69.2801C129.834 68.8731 130.353 68.6695 130.964 68.6695C131.594 68.6695 132.113 68.8731 132.521 69.2801C132.928 69.6668 133.131 70.1757 133.131 70.8066C133.131 71.4376 132.928 71.9566 132.521 72.3637C132.113 72.7504 131.594 72.9437 130.964 72.9437ZM141.103 90.4679C139.19 90.4679 137.602 90.0405 136.34 89.1857C135.078 88.3308 134.305 87.0384 134.02 85.3084L136.951 84.6062C137.114 85.4407 137.388 86.1022 137.775 86.5906C138.162 87.0791 138.64 87.4251 139.21 87.6287C139.8 87.8322 140.431 87.934 141.103 87.934C142.1 87.934 142.864 87.7406 143.393 87.3539C143.942 86.9672 144.217 86.4685 144.217 85.8579C144.217 85.2473 143.963 84.7995 143.454 84.5146C142.945 84.2297 142.192 83.9956 141.195 83.8124L140.157 83.6292C139.139 83.446 138.213 83.1815 137.378 82.8354C136.544 82.4894 135.882 82.0111 135.394 81.4005C134.905 80.7899 134.661 80.0063 134.661 79.0497C134.661 77.625 135.19 76.5259 136.249 75.7525C137.307 74.9587 138.711 74.5618 140.462 74.5618C142.151 74.5618 143.535 74.9485 144.614 75.722C145.713 76.475 146.425 77.5029 146.751 78.8055L143.82 79.6298C143.637 78.7139 143.25 78.0728 142.66 77.7064C142.07 77.3197 141.337 77.1263 140.462 77.1263C139.607 77.1263 138.935 77.2892 138.447 77.6148C137.958 77.9201 137.714 78.3577 137.714 78.9276C137.714 79.5382 137.948 79.986 138.416 80.2709C138.905 80.5559 139.556 80.7696 140.37 80.9121L141.439 81.0952C142.518 81.2784 143.505 81.5328 144.4 81.8585C145.296 82.1841 145.998 82.6523 146.507 83.2629C147.036 83.8735 147.301 84.6876 147.301 85.7053C147.301 87.2114 146.741 88.3817 145.621 89.2162C144.502 90.0507 142.996 90.4679 141.103 90.4679ZM148.725 90.0405V68.6695H151.869V77.1263H152.358C152.561 76.7396 152.846 76.3631 153.213 75.9967C153.599 75.6304 154.098 75.3352 154.709 75.1114C155.339 74.8671 156.133 74.745 157.09 74.745C158.23 74.745 159.237 74.9994 160.112 75.5082C161.008 76.0171 161.71 76.7396 162.219 77.6759C162.728 78.5918 162.982 79.701 162.982 81.0036V90.0405H159.838V81.2479C159.838 79.9453 159.512 78.9887 158.861 78.3781C158.209 77.7471 157.314 77.4316 156.174 77.4316C154.871 77.4316 153.823 77.8591 153.029 78.7139C152.256 79.5687 151.869 80.8103 151.869 82.4386V90.0405H148.725ZM177.778 90.4679C176.333 90.4679 175.02 90.1626 173.839 89.552C172.679 88.9414 171.753 88.0561 171.061 86.8959C170.39 85.7358 170.054 84.3416 170.054 82.7133V82.3164C170.054 80.6882 170.39 79.3041 171.061 78.1644C171.753 77.0042 172.679 76.1188 173.839 75.5082C175.02 74.8773 176.333 74.5618 177.778 74.5618C179.223 74.5618 180.454 74.8264 181.472 75.3556C182.49 75.8848 183.304 76.587 183.914 77.4622C184.545 78.3374 184.952 79.3041 185.136 80.3625L182.083 81.0036C181.981 80.332 181.767 79.7214 181.441 79.1718C181.116 78.6223 180.658 78.1847 180.068 77.8591C179.477 77.5334 178.734 77.3706 177.839 77.3706C176.964 77.3706 176.17 77.5741 175.458 77.9812C174.766 78.3679 174.216 78.9378 173.809 79.6909C173.402 80.4236 173.198 81.3191 173.198 82.3775V82.6523C173.198 83.7106 173.402 84.6164 173.809 85.3694C174.216 86.1225 174.766 86.6924 175.458 87.0791C176.17 87.4658 176.964 87.6592 177.839 87.6592C179.162 87.6592 180.169 87.3234 180.861 86.6517C181.553 85.9597 181.991 85.0845 182.174 84.0261L185.227 84.7283C184.983 85.7663 184.545 86.7229 183.914 87.5981C183.304 88.4733 182.49 89.1755 181.472 89.7047C180.454 90.2135 179.223 90.4679 177.778 90.4679ZM186.603 90.0405V68.6695H189.747V77.1263H190.236C190.439 76.7396 190.724 76.3631 191.09 75.9967C191.477 75.6304 191.976 75.3352 192.586 75.1114C193.217 74.8671 194.011 74.745 194.968 74.745C196.108 74.745 197.115 74.9994 197.99 75.5082C198.886 76.0171 199.588 76.7396 200.097 77.6759C200.606 78.5918 200.86 79.701 200.86 81.0036V90.0405H197.715V81.2479C197.715 79.9453 197.39 78.9887 196.739 78.3781C196.087 77.7471 195.192 77.4316 194.052 77.4316C192.749 77.4316 191.701 77.8591 190.907 78.7139C190.134 79.5687 189.747 80.8103 189.747 82.4386V90.0405H186.603ZM207.805 90.4679C206.727 90.4679 205.76 90.2848 204.905 89.9184C204.07 89.552 203.399 89.0127 202.89 88.3003C202.402 87.588 202.157 86.7229 202.157 85.7053C202.157 84.6672 202.402 83.8124 202.89 83.1407C203.399 82.4487 204.081 81.9297 204.935 81.5837C205.811 81.2377 206.798 81.0647 207.897 81.0647H212.476V80.0877C212.476 79.2126 212.212 78.5104 211.683 77.9812C211.153 77.452 210.339 77.1874 209.24 77.1874C208.162 77.1874 207.337 77.4418 206.767 77.9506C206.197 78.4595 205.821 79.121 205.638 79.9351L202.707 78.9887C202.951 78.1745 203.338 77.4418 203.867 76.7905C204.416 76.1188 205.139 75.5795 206.035 75.1724C206.93 74.7653 208.009 74.5618 209.271 74.5618C211.225 74.5618 212.761 75.0605 213.881 76.0578C215 77.0551 215.56 78.4697 215.56 80.3015V86.499C215.56 87.1096 215.845 87.4149 216.415 87.4149H217.697V90.0405H215.346C214.634 90.0405 214.054 89.8573 213.606 89.491C213.158 89.1246 212.934 88.626 212.934 87.995V87.9034H212.476C212.314 88.2087 212.069 88.5649 211.744 88.972C211.418 89.379 210.94 89.7352 210.309 90.0405C209.678 90.3255 208.843 90.4679 207.805 90.4679ZM208.263 87.8729C209.525 87.8729 210.543 87.5167 211.316 86.8043C212.09 86.0716 212.476 85.0743 212.476 83.8124V83.5071H208.08C207.246 83.5071 206.574 83.6903 206.065 84.0566C205.556 84.4027 205.302 84.9217 205.302 85.6137C205.302 86.3057 205.566 86.8552 206.096 87.2623C206.625 87.6694 207.347 87.8729 208.263 87.8729ZM218.503 90.0405V68.6695H221.648V90.0405H218.503ZM224.063 90.0405V68.6695H227.208V90.0405H224.063ZM236.523 90.4679C234.996 90.4679 233.663 90.1525 232.523 89.5215C231.384 88.8702 230.488 87.9645 229.837 86.8043C229.206 85.6239 228.89 84.2602 228.89 82.7133V82.347C228.89 80.7798 229.206 79.4161 229.837 78.2559C230.468 77.0755 231.343 76.1697 232.462 75.5388C233.602 74.8875 234.915 74.5618 236.401 74.5618C237.846 74.5618 239.108 74.8875 240.186 75.5388C241.285 76.1697 242.14 77.0551 242.751 78.1949C243.362 79.3347 243.667 80.6678 243.667 82.1943V83.385H232.096C232.137 84.708 232.574 85.7663 233.409 86.5601C234.264 87.3335 235.322 87.7202 236.584 87.7202C237.764 87.7202 238.65 87.4557 239.24 86.9265C239.851 86.3973 240.319 85.7867 240.644 85.0947L243.239 86.438C242.954 87.0079 242.537 87.6083 241.988 88.2393C241.458 88.8702 240.756 89.3994 239.881 89.8268C239.006 90.2542 237.886 90.4679 236.523 90.4679ZM232.126 80.9731H240.461C240.38 79.8333 239.973 78.948 239.24 78.317C238.507 77.6657 237.551 77.34 236.37 77.34C235.19 77.34 234.223 77.6657 233.47 78.317C232.737 78.948 232.289 79.8333 232.126 80.9731ZM245.201 90.0405V74.9892H248.284V77.2485H248.773C249.058 76.6379 249.566 76.068 250.299 75.5388C251.032 75.0096 252.121 74.745 253.566 74.745C254.706 74.745 255.713 74.9994 256.588 75.5082C257.484 76.0171 258.186 76.7396 258.695 77.6759C259.204 78.5918 259.458 79.701 259.458 81.0036V90.0405H256.314V81.2479C256.314 79.9453 255.988 78.9887 255.337 78.3781C254.685 77.7471 253.79 77.4316 252.65 77.4316C251.347 77.4316 250.299 77.8591 249.505 78.7139C248.732 79.5687 248.345 80.8103 248.345 82.4386V90.0405H245.201ZM261 82.5912V82.1333C261 80.5457 261.315 79.1922 261.946 78.0728C262.597 76.9533 263.452 76.0883 264.511 75.4777C265.569 74.8671 266.729 74.5618 267.991 74.5618C269.456 74.5618 270.576 74.8366 271.349 75.3861C272.143 75.9357 272.723 76.5259 273.089 77.1569H273.578V74.9892H276.631V93.1241C276.631 94.04 276.356 94.7727 275.807 95.3222C275.277 95.8718 274.545 96.1465 273.608 96.1465H263.473V93.3988H272.632C273.222 93.3988 273.517 93.0935 273.517 92.4829V87.6897H273.028C272.805 88.0561 272.489 88.4326 272.082 88.8193C271.675 89.206 271.136 89.5215 270.464 89.7658C269.813 90.01 268.988 90.1321 267.991 90.1321C266.729 90.1321 265.559 89.837 264.48 89.2467C263.422 88.6361 262.577 87.7711 261.946 86.6517C261.315 85.5119 261 84.1584 261 82.5912ZM268.846 87.3844C270.209 87.3844 271.329 86.957 272.204 86.1022C273.1 85.227 273.547 84.0261 273.547 82.4996V82.2248C273.547 80.6576 273.11 79.4568 272.235 78.6223C271.359 77.7675 270.23 77.34 268.846 77.34C267.502 77.34 266.383 77.7675 265.487 78.6223C264.612 79.4568 264.175 80.6576 264.175 82.2248V82.4996C264.175 84.0261 264.612 85.227 265.487 86.1022C266.383 86.957 267.502 87.3844 268.846 87.3844ZM285.909 90.4679C284.383 90.4679 283.049 90.1525 281.91 89.5215C280.77 88.8702 279.874 87.9645 279.223 86.8043C278.592 85.6239 278.277 84.2602 278.277 82.7133V82.347C278.277 80.7798 278.592 79.4161 279.223 78.2559C279.854 77.0755 280.729 76.1697 281.849 75.5388C282.988 74.8875 284.301 74.5618 285.787 74.5618C287.232 74.5618 288.494 74.8875 289.573 75.5388C290.672 76.1697 291.527 77.0551 292.137 78.1949C292.748 79.3347 293.053 80.6678 293.053 82.1943V83.385H281.482C281.523 84.708 281.961 85.7663 282.795 86.5601C283.65 87.3335 284.708 87.7202 285.97 87.7202C287.151 87.7202 288.036 87.4557 288.626 86.9265C289.237 86.3973 289.705 85.7867 290.031 85.0947L292.626 86.438C292.341 87.0079 291.924 87.6083 291.374 88.2393C290.845 88.8702 290.143 89.3994 289.267 89.8268C288.392 90.2542 287.273 90.4679 285.909 90.4679ZM281.513 80.9731H289.847C289.766 79.8333 289.359 78.948 288.626 78.317C287.894 77.6657 286.937 77.34 285.756 77.34C284.576 77.34 283.609 77.6657 282.856 78.317C282.123 78.948 281.676 79.8333 281.513 80.9731Z" fill="white"/>
<rect x="36.52" y="37.0305" width="293.046" height="85.02" rx="17.0115" stroke="#8E7FCA" stroke-width="2"/>
<rect x="35.52" y="150.068" width="585.374" height="22.5144" rx="11.2572" fill="#ECEAF6"/>
<rect x="35.52" y="199.599" width="279.179" height="22.5144" rx="11.2572" fill="#ECEAF6"/>
<rect x="341.716" y="199.599" width="279.179" height="22.5144" rx="11.2572" fill="#ECEAF6"/>
<rect x="35.52" y="249.131" width="279.179" height="22.5144" rx="11.2572" fill="#ECEAF6"/>
<rect x="341.716" y="249.131" width="279.179" height="22.5144" rx="11.2572" fill="#ECEAF6"/>
<path d="M309.134 110.035C308.902 108.139 310.988 106.833 312.592 107.871L345.978 129.471C347.729 130.604 347.132 133.303 345.066 133.591L329.089 135.819C328.462 135.906 327.901 136.254 327.543 136.776L318.067 150.596C316.894 152.306 314.227 151.655 313.975 149.596L309.134 110.035Z" fill="#362185"/>
<rect x="5" y="5.51038" width="646.415" height="296.655" rx="27" stroke="#D9D4ED" stroke-width="2"/>
<rect x="0.5" y="1.01038" width="655.415" height="305.655" rx="31.5" stroke="#ECEAF6"/>
</svg>
