<svg width="510" height="151" viewBox="0 0 510 151" fill="none" xmlns="http://www.w3.org/2000/svg">
<rect x="0.5" y="0.734863" width="509" height="215" rx="21.5" fill="white"/>
<rect x="5" y="5.23486" width="500" height="206" rx="17" fill="#F9F8FC"/>
<rect x="24.5" y="24.7349" width="461" height="35" rx="7.5" fill="#ECEAF6"/>
<path d="M45.28 48.2349V37.0349H49.568C50.24 37.0349 50.8373 37.1682 51.36 37.4349C51.8933 37.6909 52.3147 38.0589 52.624 38.5389C52.9333 39.0189 53.088 39.6002 53.088 40.2829V40.4909C53.088 41.1629 52.928 41.7442 52.608 42.2349C52.2987 42.7149 51.8773 43.0829 51.344 43.3389C50.8107 43.5949 50.2187 43.7229 49.568 43.7229H46.624V48.2349H45.28ZM46.624 42.5069H49.424C50.1387 42.5069 50.704 42.3309 51.12 41.9789C51.536 41.6162 51.744 41.1095 51.744 40.4589V40.2989C51.744 39.6482 51.536 39.1469 51.12 38.7949C50.7147 38.4322 50.1493 38.2509 49.424 38.2509H46.624V42.5069ZM54.9374 48.2349V40.4109H56.1694V41.3709H56.3934C56.532 41.0295 56.7454 40.7789 57.0334 40.6189C57.3214 40.4589 57.7 40.3789 58.1694 40.3789H59.0974V41.5309H58.0894C57.524 41.5309 57.0654 41.6909 56.7134 42.0109C56.372 42.3202 56.2014 42.8055 56.2014 43.4669V48.2349H54.9374ZM64.3034 48.4589C63.514 48.4589 62.8154 48.2935 62.2074 47.9629C61.61 47.6322 61.1407 47.1682 60.7994 46.5709C60.4687 45.9629 60.3034 45.2482 60.3034 44.4269V44.2189C60.3034 43.4082 60.4687 42.6989 60.7994 42.0909C61.1407 41.4829 61.61 41.0135 62.2074 40.6829C62.8154 40.3522 63.514 40.1869 64.3034 40.1869C65.0927 40.1869 65.786 40.3522 66.3834 40.6829C66.9914 41.0135 67.4607 41.4829 67.7914 42.0909C68.1327 42.6989 68.3034 43.4082 68.3034 44.2189V44.4269C68.3034 45.2482 68.1327 45.9629 67.7914 46.5709C67.4607 47.1682 66.9914 47.6322 66.3834 47.9629C65.786 48.2935 65.0927 48.4589 64.3034 48.4589ZM64.3034 47.3229C65.1354 47.3229 65.7967 47.0615 66.2874 46.5389C66.7887 46.0055 67.0394 45.2909 67.0394 44.3949V44.2509C67.0394 43.3549 66.7887 42.6455 66.2874 42.1229C65.7967 41.5895 65.1354 41.3229 64.3034 41.3229C63.482 41.3229 62.8207 41.5895 62.3194 42.1229C61.818 42.6455 61.5674 43.3549 61.5674 44.2509V44.3949C61.5674 45.2909 61.818 46.0055 62.3194 46.5389C62.8207 47.0615 63.482 47.3229 64.3034 47.3229ZM69.042 51.4349V50.3149H70.13C70.45 50.3149 70.61 50.1549 70.61 49.8349V40.4109H71.874V50.0589C71.874 50.4855 71.7513 50.8215 71.506 51.0669C71.2713 51.3122 70.93 51.4349 70.482 51.4349H69.042ZM71.25 39.1949C70.9727 39.1949 70.738 39.1042 70.546 38.9229C70.3647 38.7415 70.274 38.5122 70.274 38.2349C70.274 37.9469 70.3647 37.7122 70.546 37.5309C70.738 37.3495 70.9727 37.2589 71.25 37.2589C71.5273 37.2589 71.7567 37.3495 71.938 37.5309C72.1193 37.7122 72.21 37.9469 72.21 38.2349C72.21 38.5122 72.1193 38.7415 71.938 38.9229C71.7567 39.1042 71.5273 39.1949 71.25 39.1949ZM78.1151 48.4589C77.3258 48.4589 76.6325 48.2935 76.0351 47.9629C75.4378 47.6215 74.9738 47.1469 74.6431 46.5389C74.3125 45.9309 74.1471 45.2269 74.1471 44.4269V44.2349C74.1471 43.4242 74.3125 42.7149 74.6431 42.1069C74.9738 41.4989 75.4325 41.0295 76.0191 40.6989C76.6058 40.3575 77.2778 40.1869 78.0351 40.1869C78.7711 40.1869 79.4218 40.3469 79.9871 40.6669C80.5525 40.9762 80.9951 41.4242 81.3151 42.0109C81.6351 42.5975 81.7951 43.2855 81.7951 44.0749V44.6509H75.4111C75.4431 45.4935 75.7151 46.1549 76.2271 46.6349C76.7391 47.1042 77.3791 47.3389 78.1471 47.3389C78.8191 47.3389 79.3365 47.1842 79.6991 46.8749C80.0618 46.5655 80.3391 46.1975 80.5311 45.7709L81.6191 46.2989C81.4591 46.6295 81.2351 46.9602 80.9471 47.2909C80.6698 47.6215 80.3018 47.8989 79.8431 48.1229C79.3951 48.3469 78.8191 48.4589 78.1151 48.4589ZM75.4271 43.6109H80.5151C80.4725 42.8855 80.2218 42.3202 79.7631 41.9149C79.3151 41.5095 78.7391 41.3069 78.0351 41.3069C77.3205 41.3069 76.7338 41.5095 76.2751 41.9149C75.8165 42.3202 75.5338 42.8855 75.4271 43.6109ZM87.5999 48.4589C86.8425 48.4589 86.1599 48.2989 85.5519 47.9789C84.9545 47.6482 84.4799 47.1789 84.1279 46.5709C83.7865 45.9629 83.6159 45.2429 83.6159 44.4109V44.2349C83.6159 43.3922 83.7865 42.6722 84.1279 42.0749C84.4799 41.4669 84.9545 41.0029 85.5519 40.6829C86.1599 40.3522 86.8425 40.1869 87.5999 40.1869C88.3465 40.1869 88.9812 40.3255 89.5039 40.6029C90.0372 40.8802 90.4532 41.2482 90.7519 41.7069C91.0612 42.1655 91.2585 42.6562 91.3439 43.1789L90.1119 43.4349C90.0585 43.0509 89.9305 42.6989 89.7279 42.3789C89.5359 42.0589 89.2639 41.8029 88.9119 41.6109C88.5599 41.4189 88.1279 41.3229 87.6159 41.3229C87.0932 41.3229 86.6239 41.4402 86.2079 41.6749C85.8025 41.9095 85.4772 42.2455 85.2319 42.6829C84.9972 43.1202 84.8799 43.6429 84.8799 44.2509V44.3949C84.8799 45.0029 84.9972 45.5255 85.2319 45.9629C85.4772 46.4002 85.8025 46.7362 86.2079 46.9709C86.6239 47.2055 87.0932 47.3229 87.6159 47.3229C88.3945 47.3229 88.9865 47.1202 89.3919 46.7149C89.8079 46.3095 90.0639 45.8082 90.1599 45.2109L91.4079 45.4829C91.2905 45.9949 91.0772 46.4802 90.7679 46.9389C90.4585 47.3975 90.0372 47.7655 89.5039 48.0429C88.9812 48.3202 88.3465 48.4589 87.5999 48.4589ZM96.1299 48.2349C95.6819 48.2349 95.3352 48.1122 95.0899 47.8669C94.8552 47.6215 94.7379 47.2855 94.7379 46.8589V41.5149H92.3859V40.4109H94.7379V37.6269H96.0019V40.4109H98.5619V41.5149H96.0019V46.6669C96.0019 46.9869 96.1565 47.1469 96.4659 47.1469H98.2099V48.2349H96.1299ZM107.001 48.2349V38.2509H103.401V37.0349H111.945V38.2509H108.345V48.2349H107.001ZM113.562 48.2349V40.4109H114.826V48.2349H113.562ZM114.202 39.1949C113.925 39.1949 113.69 39.1042 113.498 38.9229C113.317 38.7415 113.226 38.5122 113.226 38.2349C113.226 37.9469 113.317 37.7122 113.498 37.5309C113.69 37.3495 113.925 37.2589 114.202 37.2589C114.48 37.2589 114.709 37.3495 114.89 37.5309C115.072 37.7122 115.162 37.9469 115.162 38.2349C115.162 38.5122 115.072 38.7415 114.89 38.9229C114.709 39.1042 114.48 39.1949 114.202 39.1949ZM120.364 48.2349C119.916 48.2349 119.57 48.1122 119.324 47.8669C119.09 47.6215 118.972 47.2855 118.972 46.8589V41.5149H116.62V40.4109H118.972V37.6269H120.236V40.4109H122.796V41.5149H120.236V46.6669C120.236 46.9869 120.391 47.1469 120.7 47.1469H122.444V48.2349H120.364ZM124.844 48.2349V37.0349H126.108V48.2349H124.844ZM132.35 48.4589C131.56 48.4589 130.867 48.2935 130.27 47.9629C129.672 47.6215 129.208 47.1469 128.878 46.5389C128.547 45.9309 128.382 45.2269 128.382 44.4269V44.2349C128.382 43.4242 128.547 42.7149 128.878 42.1069C129.208 41.4989 129.667 41.0295 130.254 40.6989C130.84 40.3575 131.512 40.1869 132.27 40.1869C133.006 40.1869 133.656 40.3469 134.222 40.6669C134.787 40.9762 135.23 41.4242 135.55 42.0109C135.87 42.5975 136.03 43.2855 136.03 44.0749V44.6509H129.646C129.678 45.4935 129.95 46.1549 130.462 46.6349C130.974 47.1042 131.614 47.3389 132.382 47.3389C133.054 47.3389 133.571 47.1842 133.934 46.8749C134.296 46.5655 134.574 46.1975 134.766 45.7709L135.854 46.2989C135.694 46.6295 135.47 46.9602 135.182 47.2909C134.904 47.6215 134.536 47.8989 134.078 48.1229C133.63 48.3469 133.054 48.4589 132.35 48.4589ZM129.662 43.6109H134.75C134.707 42.8855 134.456 42.3202 133.998 41.9149C133.55 41.5095 132.974 41.3069 132.27 41.3069C131.555 41.3069 130.968 41.5095 130.51 41.9149C130.051 42.3202 129.768 42.8855 129.662 43.6109Z" fill="#B4A9DB"/>
<rect x="24.5" y="24.7349" width="461" height="35" rx="7.5" stroke="#8E7FCA"/>
<rect x="24.5" y="72.7349" width="461" height="119" rx="7.5" fill="white"/>
<path d="M45.28 96.2349V85.0349H49.568C50.24 85.0349 50.8373 85.1682 51.36 85.4349C51.8933 85.6909 52.3147 86.0589 52.624 86.5389C52.9333 87.0189 53.088 87.6002 53.088 88.2829V88.4909C53.088 89.1629 52.928 89.7442 52.608 90.2349C52.2987 90.7149 51.8773 91.0829 51.344 91.3389C50.8107 91.5949 50.2187 91.7229 49.568 91.7229H46.624V96.2349H45.28ZM46.624 90.5069H49.424C50.1387 90.5069 50.704 90.3309 51.12 89.9789C51.536 89.6162 51.744 89.1095 51.744 88.4589V88.2989C51.744 87.6482 51.536 87.1469 51.12 86.7949C50.7147 86.4322 50.1493 86.2509 49.424 86.2509H46.624V90.5069ZM54.9374 96.2349V88.4109H56.1694V89.3709H56.3934C56.532 89.0295 56.7454 88.7789 57.0334 88.6189C57.3214 88.4589 57.7 88.3789 58.1694 88.3789H59.0974V89.5309H58.0894C57.524 89.5309 57.0654 89.6909 56.7134 90.0109C56.372 90.3202 56.2014 90.8055 56.2014 91.4669V96.2349H54.9374ZM64.3034 96.4589C63.514 96.4589 62.8154 96.2935 62.2074 95.9629C61.61 95.6322 61.1407 95.1682 60.7994 94.5709C60.4687 93.9629 60.3034 93.2482 60.3034 92.4269V92.2189C60.3034 91.4082 60.4687 90.6989 60.7994 90.0909C61.1407 89.4829 61.61 89.0135 62.2074 88.6829C62.8154 88.3522 63.514 88.1869 64.3034 88.1869C65.0927 88.1869 65.786 88.3522 66.3834 88.6829C66.9914 89.0135 67.4607 89.4829 67.7914 90.0909C68.1327 90.6989 68.3034 91.4082 68.3034 92.2189V92.4269C68.3034 93.2482 68.1327 93.9629 67.7914 94.5709C67.4607 95.1682 66.9914 95.6322 66.3834 95.9629C65.786 96.2935 65.0927 96.4589 64.3034 96.4589ZM64.3034 95.3229C65.1354 95.3229 65.7967 95.0615 66.2874 94.5389C66.7887 94.0055 67.0394 93.2909 67.0394 92.3949V92.2509C67.0394 91.3549 66.7887 90.6455 66.2874 90.1229C65.7967 89.5895 65.1354 89.3229 64.3034 89.3229C63.482 89.3229 62.8207 89.5895 62.3194 90.1229C61.818 90.6455 61.5674 91.3549 61.5674 92.2509V92.3949C61.5674 93.2909 61.818 94.0055 62.3194 94.5389C62.8207 95.0615 63.482 95.3229 64.3034 95.3229ZM69.042 99.4349V98.3149H70.13C70.45 98.3149 70.61 98.1549 70.61 97.8349V88.4109H71.874V98.0589C71.874 98.4855 71.7513 98.8215 71.506 99.0669C71.2713 99.3122 70.93 99.4349 70.482 99.4349H69.042ZM71.25 87.1949C70.9727 87.1949 70.738 87.1042 70.546 86.9229C70.3647 86.7415 70.274 86.5122 70.274 86.2349C70.274 85.9469 70.3647 85.7122 70.546 85.5309C70.738 85.3495 70.9727 85.2589 71.25 85.2589C71.5273 85.2589 71.7567 85.3495 71.938 85.5309C72.1193 85.7122 72.21 85.9469 72.21 86.2349C72.21 86.5122 72.1193 86.7415 71.938 86.9229C71.7567 87.1042 71.5273 87.1949 71.25 87.1949ZM78.1151 96.4589C77.3258 96.4589 76.6325 96.2935 76.0351 95.9629C75.4378 95.6215 74.9738 95.1469 74.6431 94.5389C74.3125 93.9309 74.1471 93.2269 74.1471 92.4269V92.2349C74.1471 91.4242 74.3125 90.7149 74.6431 90.1069C74.9738 89.4989 75.4325 89.0295 76.0191 88.6989C76.6058 88.3575 77.2778 88.1869 78.0351 88.1869C78.7711 88.1869 79.4218 88.3469 79.9871 88.6669C80.5525 88.9762 80.9951 89.4242 81.3151 90.0109C81.6351 90.5975 81.7951 91.2855 81.7951 92.0749V92.6509H75.4111C75.4431 93.4935 75.7151 94.1549 76.2271 94.6349C76.7391 95.1042 77.3791 95.3389 78.1471 95.3389C78.8191 95.3389 79.3365 95.1842 79.6991 94.8749C80.0618 94.5655 80.3391 94.1975 80.5311 93.7709L81.6191 94.2989C81.4591 94.6295 81.2351 94.9602 80.9471 95.2909C80.6698 95.6215 80.3018 95.8989 79.8431 96.1229C79.3951 96.3469 78.8191 96.4589 78.1151 96.4589ZM75.4271 91.6109H80.5151C80.4725 90.8855 80.2218 90.3202 79.7631 89.9149C79.3151 89.5095 78.7391 89.3069 78.0351 89.3069C77.3205 89.3069 76.7338 89.5095 76.2751 89.9149C75.8165 90.3202 75.5338 90.8855 75.4271 91.6109ZM87.5999 96.4589C86.8425 96.4589 86.1599 96.2989 85.5519 95.9789C84.9545 95.6482 84.4799 95.1789 84.1279 94.5709C83.7865 93.9629 83.6159 93.2429 83.6159 92.4109V92.2349C83.6159 91.3922 83.7865 90.6722 84.1279 90.0749C84.4799 89.4669 84.9545 89.0029 85.5519 88.6829C86.1599 88.3522 86.8425 88.1869 87.5999 88.1869C88.3465 88.1869 88.9812 88.3255 89.5039 88.6029C90.0372 88.8802 90.4532 89.2482 90.7519 89.7069C91.0612 90.1655 91.2585 90.6562 91.3439 91.1789L90.1119 91.4349C90.0585 91.0509 89.9305 90.6989 89.7279 90.3789C89.5359 90.0589 89.2639 89.8029 88.9119 89.6109C88.5599 89.4189 88.1279 89.3229 87.6159 89.3229C87.0932 89.3229 86.6239 89.4402 86.2079 89.6749C85.8025 89.9095 85.4772 90.2455 85.2319 90.6829C84.9972 91.1202 84.8799 91.6429 84.8799 92.2509V92.3949C84.8799 93.0029 84.9972 93.5255 85.2319 93.9629C85.4772 94.4002 85.8025 94.7362 86.2079 94.9709C86.6239 95.2055 87.0932 95.3229 87.6159 95.3229C88.3945 95.3229 88.9865 95.1202 89.3919 94.7149C89.8079 94.3095 90.0639 93.8082 90.1599 93.2109L91.4079 93.4829C91.2905 93.9949 91.0772 94.4802 90.7679 94.9389C90.4585 95.3975 90.0372 95.7655 89.5039 96.0429C88.9812 96.3202 88.3465 96.4589 87.5999 96.4589ZM96.1299 96.2349C95.6819 96.2349 95.3352 96.1122 95.0899 95.8669C94.8552 95.6215 94.7379 95.2855 94.7379 94.8589V89.5149H92.3859V88.4109H94.7379V85.6269H96.0019V88.4109H98.5619V89.5149H96.0019V94.6669C96.0019 94.9869 96.1565 95.1469 96.4659 95.1469H98.2099V96.2349H96.1299ZM104.671 96.2349V85.0349H108.143C109.625 85.0349 110.767 85.4082 111.567 86.1549C112.377 86.9015 112.783 88.0482 112.783 89.5949V91.6749C112.783 93.2322 112.377 94.3842 111.567 95.1309C110.767 95.8669 109.625 96.2349 108.143 96.2349H104.671ZM106.015 95.0189H108.159C109.236 95.0189 110.052 94.7522 110.607 94.2189C111.161 93.6855 111.439 92.8589 111.439 91.7389V89.5469C111.439 88.4055 111.161 87.5735 110.607 87.0509C110.052 86.5282 109.236 86.2669 108.159 86.2669H106.015V95.0189ZM118.662 96.4589C117.873 96.4589 117.179 96.2935 116.582 95.9629C115.985 95.6215 115.521 95.1469 115.19 94.5389C114.859 93.9309 114.694 93.2269 114.694 92.4269V92.2349C114.694 91.4242 114.859 90.7149 115.19 90.1069C115.521 89.4989 115.979 89.0295 116.566 88.6989C117.153 88.3575 117.825 88.1869 118.582 88.1869C119.318 88.1869 119.969 88.3469 120.534 88.6669C121.099 88.9762 121.542 89.4242 121.862 90.0109C122.182 90.5975 122.342 91.2855 122.342 92.0749V92.6509H115.958C115.99 93.4935 116.262 94.1549 116.774 94.6349C117.286 95.1042 117.926 95.3389 118.694 95.3389C119.366 95.3389 119.883 95.1842 120.246 94.8749C120.609 94.5655 120.886 94.1975 121.078 93.7709L122.166 94.2989C122.006 94.6295 121.782 94.9602 121.494 95.2909C121.217 95.6215 120.849 95.8989 120.39 96.1229C119.942 96.3469 119.366 96.4589 118.662 96.4589ZM115.974 91.6109H121.062C121.019 90.8855 120.769 90.3202 120.31 89.9149C119.862 89.5095 119.286 89.3069 118.582 89.3069C117.867 89.3069 117.281 89.5095 116.822 89.9149C116.363 90.3202 116.081 90.8855 115.974 91.6109ZM127.699 96.4589C126.728 96.4589 125.907 96.2349 125.235 95.7869C124.573 95.3389 124.173 94.6295 124.035 93.6589L125.235 93.3869C125.32 93.8989 125.48 94.3042 125.715 94.6029C125.949 94.8909 126.237 95.0989 126.579 95.2269C126.931 95.3442 127.304 95.4029 127.699 95.4029C128.285 95.4029 128.749 95.2855 129.091 95.0509C129.432 94.8162 129.603 94.5015 129.603 94.1069C129.603 93.7015 129.437 93.4189 129.107 93.2589C128.787 93.0882 128.344 92.9495 127.779 92.8429L127.123 92.7309C126.621 92.6455 126.163 92.5122 125.747 92.3309C125.331 92.1495 125 91.9042 124.755 91.5949C124.509 91.2855 124.387 90.8962 124.387 90.4269C124.387 89.7229 124.659 89.1735 125.203 88.7789C125.747 88.3842 126.467 88.1869 127.363 88.1869C128.248 88.1869 128.963 88.3895 129.507 88.7949C130.061 89.1895 130.419 89.7495 130.579 90.4749L129.395 90.7789C129.299 90.2135 129.069 89.8189 128.707 89.5949C128.344 89.3602 127.896 89.2429 127.363 89.2429C126.829 89.2429 126.408 89.3442 126.099 89.5469C125.789 89.7389 125.635 90.0269 125.635 90.4109C125.635 90.7842 125.779 91.0615 126.067 91.2429C126.365 91.4135 126.76 91.5415 127.251 91.6269L127.907 91.7389C128.461 91.8349 128.957 91.9682 129.395 92.1389C129.843 92.2989 130.195 92.5335 130.451 92.8429C130.717 93.1522 130.851 93.5575 130.851 94.0589C130.851 94.8269 130.563 95.4189 129.987 95.8349C129.421 96.2509 128.659 96.4589 127.699 96.4589ZM136.584 96.4589C135.827 96.4589 135.144 96.2989 134.536 95.9789C133.939 95.6482 133.464 95.1789 133.112 94.5709C132.771 93.9629 132.6 93.2429 132.6 92.4109V92.2349C132.6 91.3922 132.771 90.6722 133.112 90.0749C133.464 89.4669 133.939 89.0029 134.536 88.6829C135.144 88.3522 135.827 88.1869 136.584 88.1869C137.331 88.1869 137.966 88.3255 138.488 88.6029C139.022 88.8802 139.438 89.2482 139.736 89.7069C140.046 90.1655 140.243 90.6562 140.328 91.1789L139.096 91.4349C139.043 91.0509 138.915 90.6989 138.712 90.3789C138.52 90.0589 138.248 89.8029 137.896 89.6109C137.544 89.4189 137.112 89.3229 136.6 89.3229C136.078 89.3229 135.608 89.4402 135.192 89.6749C134.787 89.9095 134.462 90.2455 134.216 90.6829C133.982 91.1202 133.864 91.6429 133.864 92.2509V92.3949C133.864 93.0029 133.982 93.5255 134.216 93.9629C134.462 94.4002 134.787 94.7362 135.192 94.9709C135.608 95.2055 136.078 95.3229 136.6 95.3229C137.379 95.3229 137.971 95.1202 138.376 94.7149C138.792 94.3095 139.048 93.8082 139.144 93.2109L140.392 93.4829C140.275 93.9949 140.062 94.4802 139.752 94.9389C139.443 95.3975 139.022 95.7655 138.488 96.0429C137.966 96.3202 137.331 96.4589 136.584 96.4589ZM142.547 96.2349V88.4109H143.779V89.3709H144.003C144.141 89.0295 144.355 88.7789 144.643 88.6189C144.931 88.4589 145.309 88.3789 145.779 88.3789H146.707V89.5309H145.699C145.133 89.5309 144.675 89.6909 144.323 90.0109C143.981 90.3202 143.811 90.8055 143.811 91.4669V96.2349H142.547ZM148.578 96.2349V88.4109H149.842V96.2349H148.578ZM149.218 87.1949C148.941 87.1949 148.706 87.1042 148.514 86.9229C148.333 86.7415 148.242 86.5122 148.242 86.2349C148.242 85.9469 148.333 85.7122 148.514 85.5309C148.706 85.3495 148.941 85.2589 149.218 85.2589C149.495 85.2589 149.725 85.3495 149.906 85.5309C150.087 85.7122 150.178 85.9469 150.178 86.2349C150.178 86.5122 150.087 86.7415 149.906 86.9229C149.725 87.1042 149.495 87.1949 149.218 87.1949ZM152.5 99.4349V88.4109H153.732V89.7069H153.956C154.159 89.3122 154.484 88.9602 154.932 88.6509C155.391 88.3415 156.025 88.1869 156.836 88.1869C157.508 88.1869 158.121 88.3522 158.676 88.6829C159.241 89.0029 159.689 89.4615 160.02 90.0589C160.361 90.6562 160.532 91.3762 160.532 92.2189V92.4269C160.532 93.2589 160.367 93.9789 160.036 94.5869C159.705 95.1949 159.257 95.6589 158.692 95.9789C158.137 96.2989 157.519 96.4589 156.836 96.4589C156.292 96.4589 155.828 96.3842 155.444 96.2349C155.071 96.0962 154.767 95.9149 154.532 95.6909C154.297 95.4669 154.116 95.2375 153.988 95.0029H153.764V99.4349H152.5ZM156.5 95.3389C157.311 95.3389 157.967 95.0829 158.468 94.5709C158.98 94.0482 159.236 93.3229 159.236 92.3949V92.2509C159.236 91.3229 158.98 90.6029 158.468 90.0909C157.967 89.5682 157.311 89.3069 156.5 89.3069C155.7 89.3069 155.039 89.5682 154.516 90.0909C154.004 90.6029 153.748 91.3229 153.748 92.2509V92.3949C153.748 93.3229 154.004 94.0482 154.516 94.5709C155.039 95.0829 155.7 95.3389 156.5 95.3389ZM165.364 96.2349C164.916 96.2349 164.57 96.1122 164.324 95.8669C164.09 95.6215 163.972 95.2855 163.972 94.8589V89.5149H161.62V88.4109H163.972V85.6269H165.236V88.4109H167.796V89.5149H165.236V94.6669C165.236 94.9869 165.391 95.1469 165.7 95.1469H167.444V96.2349H165.364ZM169.844 96.2349V88.4109H171.108V96.2349H169.844ZM170.484 87.1949C170.206 87.1949 169.972 87.1042 169.78 86.9229C169.598 86.7415 169.508 86.5122 169.508 86.2349C169.508 85.9469 169.598 85.7122 169.78 85.5309C169.972 85.3495 170.206 85.2589 170.484 85.2589C170.761 85.2589 170.99 85.3495 171.172 85.5309C171.353 85.7122 171.444 85.9469 171.444 86.2349C171.444 86.5122 171.353 86.7415 171.172 86.9229C170.99 87.1042 170.761 87.1949 170.484 87.1949ZM177.382 96.4589C176.592 96.4589 175.894 96.2935 175.286 95.9629C174.688 95.6322 174.219 95.1682 173.878 94.5709C173.547 93.9629 173.382 93.2482 173.382 92.4269V92.2189C173.382 91.4082 173.547 90.6989 173.878 90.0909C174.219 89.4829 174.688 89.0135 175.286 88.6829C175.894 88.3522 176.592 88.1869 177.382 88.1869C178.171 88.1869 178.864 88.3522 179.462 88.6829C180.07 89.0135 180.539 89.4829 180.87 90.0909C181.211 90.6989 181.382 91.4082 181.382 92.2189V92.4269C181.382 93.2482 181.211 93.9629 180.87 94.5709C180.539 95.1682 180.07 95.6322 179.462 95.9629C178.864 96.2935 178.171 96.4589 177.382 96.4589ZM177.382 95.3229C178.214 95.3229 178.875 95.0615 179.366 94.5389C179.867 94.0055 180.118 93.2909 180.118 92.3949V92.2509C180.118 91.3549 179.867 90.6455 179.366 90.1229C178.875 89.5895 178.214 89.3229 177.382 89.3229C176.56 89.3229 175.899 89.5895 175.398 90.1229C174.896 90.6455 174.646 91.3549 174.646 92.2509V92.3949C174.646 93.2909 174.896 94.0055 175.398 94.5389C175.899 95.0615 176.56 95.3229 177.382 95.3229ZM183.656 96.2349V88.4109H184.888V89.7389H185.112C185.283 89.3655 185.571 89.0295 185.976 88.7309C186.392 88.4215 187 88.2669 187.8 88.2669C188.387 88.2669 188.909 88.3895 189.368 88.6349C189.837 88.8802 190.211 89.2429 190.488 89.7229C190.765 90.2029 190.904 90.7949 190.904 91.4989V96.2349H189.64V91.5949C189.64 90.8162 189.443 90.2509 189.048 89.8989C188.664 89.5469 188.141 89.3709 187.48 89.3709C186.723 89.3709 186.104 89.6162 185.624 90.1069C185.155 90.5975 184.92 91.3282 184.92 92.2989V96.2349H183.656ZM194.157 96.4589C193.847 96.4589 193.586 96.3575 193.373 96.1549C193.17 95.9522 193.069 95.6909 193.069 95.3709C193.069 95.0509 193.17 94.7895 193.373 94.5869C193.586 94.3842 193.847 94.2829 194.157 94.2829C194.477 94.2829 194.738 94.3842 194.941 94.5869C195.143 94.7895 195.245 95.0509 195.245 95.3709C195.245 95.6909 195.143 95.9522 194.941 96.1549C194.738 96.3575 194.477 96.4589 194.157 96.4589ZM198.204 96.4589C197.894 96.4589 197.633 96.3575 197.42 96.1549C197.217 95.9522 197.116 95.6909 197.116 95.3709C197.116 95.0509 197.217 94.7895 197.42 94.5869C197.633 94.3842 197.894 94.2829 198.204 94.2829C198.524 94.2829 198.785 94.3842 198.988 94.5869C199.19 94.7895 199.292 95.0509 199.292 95.3709C199.292 95.6909 199.19 95.9522 198.988 96.1549C198.785 96.3575 198.524 96.4589 198.204 96.4589ZM202.25 96.4589C201.941 96.4589 201.68 96.3575 201.466 96.1549C201.264 95.9522 201.162 95.6909 201.162 95.3709C201.162 95.0509 201.264 94.7895 201.466 94.5869C201.68 94.3842 201.941 94.2829 202.25 94.2829C202.57 94.2829 202.832 94.3842 203.034 94.5869C203.237 94.7895 203.338 95.0509 203.338 95.3709C203.338 95.6909 203.237 95.9522 203.034 96.1549C202.832 96.3575 202.57 96.4589 202.25 96.4589Z" fill="#B4A9DB"/>
<rect x="24.5" y="72.7349" width="461" height="119" rx="7.5" stroke="#C7BFE4"/>
<path d="M178.014 53.9466C177.675 52.6612 178.969 51.5546 180.155 52.1142L205.397 64.0162C206.691 64.6265 206.539 66.5456 205.165 66.9457L194.727 69.9847C194.041 70.1843 193.47 70.6685 193.153 71.3181L188.111 81.6479C187.479 82.9431 185.608 82.7582 185.241 81.3641L178.014 53.9466Z" fill="#C7BFE4" stroke="#8E7FCA" stroke-width="0.994016"/>
<rect x="5" y="5.23486" width="500" height="206" rx="17" stroke="#D9D4ED" stroke-width="2"/>
<rect x="0.5" y="0.734863" width="509" height="215" rx="21.5" stroke="#ECEAF6"/>
</svg>
